<?xml version="1.0" encoding="UTF-8" standalone="no"?>
<!-- Created with Inkscape (http://www.inkscape.org/) -->

<svg
   xmlns:dc="http://purl.org/dc/elements/1.1/"
   xmlns:cc="http://creativecommons.org/ns#"
   xmlns:rdf="http://www.w3.org/1999/02/22-rdf-syntax-ns#"
   xmlns:svg="http://www.w3.org/2000/svg"
   xmlns="http://www.w3.org/2000/svg"
   xmlns:sodipodi="http://sodipodi.sourceforge.net/DTD/sodipodi-0.dtd"
   xmlns:inkscape="http://www.inkscape.org/namespaces/inkscape"
   width="48"
   height="48"
   viewBox="0 0 48 48"
   id="svg6395"
   version="1.1"
   inkscape:version="0.91 r13725"
   sodipodi:docname="MH-Medicine Icon Green.svg"
   inkscape:export-filename="C:\Users\gabie\Pictures\Custom Icons\Wiki Icons\Mantle Icon.png"
   inkscape:export-xdpi="523.63519"
   inkscape:export-ydpi="523.63519">
  <defs
     id="defs6397" />
  <sodipodi:namedview
     id="base"
     pagecolor="#ffffff"
     bordercolor="#666666"
     borderopacity="1.0"
     inkscape:pageopacity="0.0"
     inkscape:pageshadow="2"
     inkscape:zoom="3.959798"
     inkscape:cx="64.696582"
     inkscape:cy="21.307637"
     inkscape:document-units="px"
     inkscape:current-layer="layer1"
     showgrid="true"
     units="px"
     inkscape:object-nodes="true"
     inkscape:window-width="1304"
     inkscape:window-height="745"
     inkscape:window-x="-8"
     inkscape:window-y="-8"
     inkscape:window-maximized="1">
    <inkscape:grid
       type="xygrid"
       id="grid6979" />
  </sodipodi:namedview>
  <metadata
     id="metadata6400">
    <rdf:RDF>
      <cc:Work
         rdf:about="">
        <dc:format>image/svg+xml</dc:format>
        <dc:type
           rdf:resource="http://purl.org/dc/dcmitype/StillImage" />
        <dc:title></dc:title>
      </cc:Work>
    </rdf:RDF>
  </metadata>
  <g
     inkscape:label="Layer 1"
     inkscape:groupmode="layer"
     id="layer1"
     transform="translate(0,-1004.3622)">
    <path
       style="display:inline;fill:#000000;fill-rule:evenodd;stroke:#000000;stroke-width:1px;stroke-linecap:butt;stroke-linejoin:miter;stroke-opacity:1"
       d="m 13,1010.3622 22,0 0,6 4,5 0,8 -30,0 0,-10 4,-4 z"
       id="path5312"
       inkscape:connector-curvature="0" />
    <path
       style="display:inline;fill:#70c674;fill-rule:evenodd;stroke:#000000;stroke-width:2;stroke-linecap:round;stroke-linejoin:round;stroke-miterlimit:4;stroke-dasharray:none;stroke-opacity:1;fill-opacity:1"
       d="m 15,1007.3622 0,10 -4,4 0,20 c 0,0 0,2 2,2 l 22,0 c 0,0 2,0 2,-2 l 0,-20 -4,-4 0,-10 8,0 0,4 -4,0 0,4 4,0 0,31 -3,3 -28,0 -3,-3 0,-31 4,0 0,-4 -4,0 0,-4 z"
       id="path5306"
       inkscape:connector-curvature="0"
       sodipodi:nodetypes="ccccscscccccccccccccccccc" />
    <path
       style="display:inline;fill:#70c674;fill-rule:evenodd;stroke:#000000;stroke-width:2;stroke-linecap:round;stroke-linejoin:round;stroke-miterlimit:4;stroke-dasharray:none;stroke-opacity:1;fill-opacity:1"
       d="m 27,1013.3622 c -1,0 -1,-2 -2,-2 l -2,0 c 0,0 -2,0 -2,2 l 0,2 6,6 0,6 -4,0 0,-4 -7,-7 0,-6 3,-3 10,0 2,2 0,4 0,3 -3,3 -3,0 -4,-4 0,-2 c 0,0 0,-2 2,-2 l 2,0 c 1,0 1,2 2,2 z"
       id="path5308"
       inkscape:connector-curvature="0"
       sodipodi:nodetypes="cscsccccccccccccccccssc" />
    <path
       style="display:inline;fill:#4e884f;fill-opacity:1;fill-rule:evenodd;stroke:#000000;stroke-width:2;stroke-linecap:round;stroke-linejoin:round;stroke-miterlimit:4;stroke-dasharray:none;stroke-opacity:1"
       d="m 11,1027.3622 26,0 0,14 c 0,0 0,2 -2,2 -2,0 -22,0 -22,0 0,0 -2,0 -2,-2 0,-2 0,-14 0,-14 z"
       id="path5310"
       inkscape:connector-curvature="0" />
  </g>
</svg>
